<?xml version="1.0" encoding="UTF-8"?>
<svg version="1.1" xmlns="http://www.w3.org/2000/svg" width="500" height="500">
<path d="M0 0 C0.66595688 -0.0049649 1.33191376 -0.00992981 2.01805115 -0.01504517 C4.20516016 -0.0295604 6.39219658 -0.03645184 8.5793457 -0.04199219 C9.33239298 -0.04481956 10.08544025 -0.04764694 10.86130714 -0.05056 C14.84862234 -0.06551154 18.83590175 -0.07476574 22.82324219 -0.07910156 C26.91379303 -0.08457197 31.00400865 -0.10858114 35.09445477 -0.13707352 C38.26460179 -0.15582479 41.43467017 -0.16091214 44.60486794 -0.16243744 C46.11135497 -0.16543776 47.61784151 -0.1733761 49.1242733 -0.18662262 C63.6115314 -0.30489517 76.35817252 1.61209986 87.25512695 11.84863281 C97.3814075 22.60024144 100.53374361 34.19680048 100.53637695 48.67675781 C100.54399048 49.85018738 100.551604 51.02361694 100.55944824 52.23260498 C100.57020059 54.70338832 100.57312229 57.17421693 100.56860352 59.64501953 C100.56763325 63.38685544 100.60927423 67.12662439 100.65356445 70.86816406 C100.73111072 86.2909265 100.49070954 99.96961979 89.95043945 112.26660156 C86.90434743 115.33165267 83.71258261 117.84676291 80.06762695 120.16113281 C79.47594727 120.55171875 78.88426758 120.94230469 78.2746582 121.34472656 C67.46757524 127.63541665 53.37450711 126.37760911 41.32543945 125.93969727 C38.8074446 125.84826307 36.28938295 125.77371156 33.77075195 125.70214844 C26.45086824 125.48012891 19.16628497 125.22611472 11.88891602 124.35571289 C6.9801621 123.83127899 5.07019427 125.43598059 1.06762695 128.16113281 C0.40762695 128.16113281 -0.25237305 128.16113281 -0.93237305 128.16113281 C-0.93237305 128.82113281 -0.93237305 129.48113281 -0.93237305 130.16113281 C-2.94077056 131.84473013 -4.95207887 133.41983417 -7.05737305 134.97363281 C-8.2067451 135.83306147 -9.35518668 136.69373594 -10.50268555 137.55566406 C-11.35842163 138.19375 -11.35842163 138.19375 -12.23144531 138.84472656 C-13.93043943 140.15963632 -15.53893356 141.54704523 -17.1550293 142.96191406 C-19.93237305 145.16113281 -19.93237305 145.16113281 -23.24487305 145.53613281 C-25.93237305 145.16113281 -25.93237305 145.16113281 -26.93237305 144.16113281 C-27.06095277 141.48189026 -27.12212721 138.8410553 -27.11987305 136.16113281 C-27.12083984 135.0049646 -27.12083984 135.0049646 -27.12182617 133.82543945 C-27.07098387 128.34313696 -26.47005373 123.44691017 -24.93237305 118.16113281 C-25.77799805 117.93425781 -26.62362305 117.70738281 -27.49487305 117.47363281 C-36.3222108 114.10319476 -41.13470096 108.21041118 -45.06088257 99.7210083 C-47.86434726 92.56172972 -48.54662007 86.23226321 -48.53393555 78.58300781 C-48.5425058 77.41336487 -48.55107605 76.24372192 -48.55990601 75.03863525 C-48.57132561 72.5780291 -48.57244286 70.11735548 -48.5637207 67.65673828 C-48.55741239 63.93434783 -48.60435306 60.21516133 -48.6550293 56.49316406 C-48.72078805 43.53543511 -48.36818536 32.65939454 -41.93237305 21.16113281 C-41.27237305 21.16113281 -40.61237305 21.16113281 -39.93237305 21.16113281 C-39.84987305 20.60425781 -39.76737305 20.04738281 -39.68237305 19.47363281 C-37.23785637 11.93637305 -29.42524839 7.84735884 -22.93237305 4.16113281 C-15.54081347 1.13637449 -7.95707136 0.04538769 0 0 Z M-27.61987305 22.84863281 C-37.96071023 35.46677796 -36.12852502 51.09480988 -35.80029297 66.51635742 C-35.74478643 69.35305969 -35.71638543 72.18927852 -35.68823242 75.02636719 C-35.6527918 76.85647839 -35.61573795 78.68655921 -35.5769043 80.51660156 C-35.5725386 81.35120407 -35.56817291 82.18580658 -35.56367493 83.04570007 C-35.31193059 91.83852142 -32.0495025 98.88302627 -25.93237305 105.16113281 C-25.27237305 105.16113281 -24.61237305 105.16113281 -23.93237305 105.16113281 C-23.93237305 105.82113281 -23.93237305 106.48113281 -23.93237305 107.16113281 C-22.94237305 107.49113281 -21.95237305 107.82113281 -20.93237305 108.16113281 C-17.78110021 103.91376507 -16.16924938 99.44088379 -16.93237305 94.16113281 C-18.4733884 91.90987295 -20.22542175 90.11765533 -22.14331055 88.18066406 C-28.22661996 81.31369689 -28.22800465 70.48204162 -27.7175293 61.80957031 C-26.82016586 50.27410806 -24.71512384 40.83099441 -15.88549805 32.69238281 C-6.87622803 25.62911512 1.86175574 23.85014101 13.0480957 23.82519531 C14.62195793 23.81521011 14.62195793 23.81521011 16.22761536 23.80502319 C18.44225318 23.79492839 20.65692123 23.79020519 22.87158203 23.79052734 C26.22716587 23.78616913 29.5814173 23.74985546 32.93676758 23.71191406 C58.86883359 23.57559234 58.86883359 23.57559234 68.06762695 32.16113281 C68.72762695 32.16113281 69.38762695 32.16113281 70.06762695 32.16113281 C70.06762695 32.82113281 70.06762695 33.48113281 70.06762695 34.16113281 C70.72762695 34.16113281 71.38762695 34.16113281 72.06762695 34.16113281 C72.46981445 35.52238281 72.46981445 35.52238281 72.88012695 36.91113281 C73.85474504 40.08870679 73.85474504 40.08870679 75.56762695 42.09863281 C80.11934695 48.35724781 79.46712954 56.46446845 79.50512695 63.84863281 C79.53799805 64.95658203 79.57086914 66.06453125 79.60473633 67.20605469 C79.67286985 77.80391459 76.68772863 87.66978052 69.17797852 95.42236328 C60.29182847 102.74387654 51.56388803 103.92810376 40.38012695 103.66113281 C31.78075591 103.45775437 25.59705827 103.3776411 18.53320312 108.67089844 C16.83389912 110.05043536 16.83389912 110.05043536 17.06762695 112.16113281 C24.18420135 112.26289706 31.30058675 112.3327511 38.41772461 112.38085938 C40.83674126 112.40092346 43.25570971 112.42818125 45.67456055 112.46289062 C49.15987063 112.51163622 52.64453711 112.53415446 56.13012695 112.55175781 C57.20439941 112.57240295 58.27867187 112.5930481 59.38549805 112.61431885 C67.43126233 112.61670094 72.71096248 111.06007031 78.81762695 105.78613281 C86.57580681 96.73492299 88.53502036 88.39253651 88.5012207 76.69628906 C88.50646255 75.62293808 88.51170441 74.5495871 88.5171051 73.44371033 C88.52349636 71.18554546 88.52222611 68.92734717 88.51367188 66.66918945 C88.50515975 63.23685778 88.53396959 59.8061913 88.56567383 56.37402344 C88.56728619 54.16894581 88.56670764 51.96386526 88.5637207 49.75878906 C88.57495468 48.74494644 88.58618866 47.73110382 88.59776306 46.6865387 C88.49958042 36.52144679 85.22035568 27.53540623 78.06762695 20.16113281 C71.0029719 14.35986498 64.19472778 11.92179105 54.98999023 11.88647461 C54.32067474 11.88136368 53.65135925 11.87625275 52.96176147 11.87098694 C50.77039402 11.85719705 48.57934488 11.85803973 46.38793945 11.86035156 C44.85008632 11.85645855 43.31223425 11.85212265 41.77438354 11.84736633 C38.5584565 11.83992672 35.34263928 11.84017875 32.12670898 11.84545898 C28.02587165 11.85124797 23.9254868 11.83432569 19.8247242 11.81111431 C16.65035416 11.79631021 13.47609141 11.79551434 10.30169296 11.79862404 C8.79077128 11.79811409 7.27984307 11.79293827 5.76895523 11.78281212 C-7.02457546 11.70758675 -18.46868391 13.05627756 -27.61987305 22.84863281 Z M-7.93237305 40.16113281 C-9.21989732 42.22349376 -9.21989732 42.22349376 -9.93237305 44.16113281 C-10.59237305 44.16113281 -11.25237305 44.16113281 -11.93237305 44.16113281 C-12.5837223 45.72134148 -13.22820269 47.2844186 -13.86987305 48.84863281 C-14.22952148 49.71875 -14.58916992 50.58886719 -14.9597168 51.48535156 C-18.31959933 60.72840189 -18.03842849 71.20107873 -13.93237305 80.16113281 C-11.16282566 84.28054363 -7.9394609 87.26183598 -3.93237305 90.16113281 C-6.67023712 109.26792893 -6.67023712 109.26792893 -11.93237305 117.16113281 C-12.26946367 119.91372093 -12.26946367 119.91372093 -11.93237305 122.16113281 C-6.03451699 118.12756059 -6.03451699 118.12756059 -0.93237305 113.16113281 C-0.93237305 112.50113281 -0.93237305 111.84113281 -0.93237305 111.16113281 C-0.27237305 111.16113281 0.38762695 111.16113281 1.06762695 111.16113281 C1.06762695 110.50113281 1.06762695 109.84113281 1.06762695 109.16113281 C3.54262695 108.17113281 3.54262695 108.17113281 6.06762695 107.16113281 C6.06762695 106.50113281 6.06762695 105.84113281 6.06762695 105.16113281 C6.72762695 105.16113281 7.38762695 105.16113281 8.06762695 105.16113281 C8.06762695 104.50113281 8.06762695 103.84113281 8.06762695 103.16113281 C8.63763428 102.90493164 9.2076416 102.64873047 9.79492188 102.38476562 C12.29718605 101.03753735 14.23750183 99.38650133 16.4309082 97.58300781 C22.79656148 93.07697047 28.6708126 93.25888561 36.25512695 93.41113281 C50.028581 93.66435081 50.028581 93.66435081 61.64575195 86.81738281 C67.63446014 79.84152492 68.53840849 72.42194212 68.63012695 63.53613281 C68.64479004 62.65376953 68.65945313 61.77140625 68.67456055 60.86230469 C68.5428532 52.36321395 65.9582161 45.50301401 59.9230957 39.45019531 C53.49983466 34.98771922 47.62763679 34.69390916 40.0168457 34.69238281 C38.43586845 34.68096252 38.43586845 34.68096252 36.82295227 34.66931152 C34.59992838 34.65853995 32.376854 34.6556454 30.15380859 34.66015625 C26.77590257 34.66112684 23.40028271 34.61950433 20.02270508 34.57519531 C17.85408998 34.56998622 15.68546706 34.56730015 13.5168457 34.56738281 C12.01948128 34.54278992 12.01948128 34.54278992 10.49186707 34.5177002 C3.54957851 34.58515669 -2.2605004 35.96945106 -7.93237305 40.16113281 Z " fill="#F0F3EB" transform="translate(233.932373046875,168.8388671875)"/>
<path d="M0 0 C0.66 0.33 1.32 0.66 2 1 C2 1.66 2 2.32 2 3 C2.66 3 3.32 3 4 3 C5.72739597 10.85024507 5.72739597 10.85024507 3.0625 15.0625 C-1.12508106 17.71178598 -3.09799255 17.62247714 -8 17 C-10.4375 15.9375 -10.4375 15.9375 -12 14 C-13.08711382 10.08639025 -13.4142982 7.93217096 -11.75 4.1875 C-8.20783421 -0.24020724 -5.41636324 -0.295438 0 0 Z " fill="#E0EBE8" transform="translate(336,159)"/>
<path d="M0 0 C2.55376992 0.85125664 3.66416489 1.568212 5.3125 3.6875 C6.32922829 7.10740423 5.87281149 9.57109774 5 13 C2.66628145 15.78251058 1.17171882 15.97502272 -2.4375 16.5 C-6 16 -6 16 -8.9375 13.875 C-11 11 -11 11 -11.625 8 C-10.29618151 1.62167124 -6.29526594 -0.9375928 0 0 Z " fill="#E7EDEB" transform="translate(285,225)"/>
<path d="M0 0 C2.03667615 1.54506466 2.86073078 2.72146156 4 5 C4.54035146 9.05263598 4.34199395 10.53730231 1.875 13.875 C-1 16 -1 16 -4 16.625 C-8.11289267 15.76814736 -9.59686932 14.42264067 -12 11 C-12 7.34256132 -11.81308469 5.06054525 -9.5625 2.125 C-6.32215068 -0.20805151 -3.9649597 -0.32367018 0 0 Z " fill="#E1E7E6" transform="translate(241,225)"/>
<path d="M0 0 C4.75 0.875 4.75 0.875 7 2 C7 2.66 7 3.32 7 4 C7.66 4 8.32 4 9 4 C11.20080053 7.3012008 11.21218749 7.89101158 10.75 11.625 C10.61851562 12.81996094 10.61851562 12.81996094 10.484375 14.0390625 C10.24460937 15.00972656 10.24460937 15.00972656 10 16 C9.34 16.33 8.68 16.66 8 17 C6.9446819 20.02930359 6.81330917 23.01583182 6.68359375 26.203125 C6.64169922 27.1828125 6.59980469 28.1625 6.55664062 29.171875 C6.49766602 30.69554687 6.49766602 30.69554687 6.4375 32.25 C6.39431641 33.28125 6.35113281 34.3125 6.30664062 35.375 C6.20074318 37.9165387 6.09866557 40.45817196 6 43 C5.67 43 5.34 43 5 43 C4.98598145 42.16190796 4.98598145 42.16190796 4.97167969 41.30688477 C4.91731012 38.72459677 4.83380291 36.14399402 4.75 33.5625 C4.73582031 32.68400391 4.72164063 31.80550781 4.70703125 30.90039062 C4.36279228 21.57151467 1.29221346 14.81656458 -5 8 C-4.34 7.01 -3.68 6.02 -3 5 C-2.01 5 -1.02 5 0 5 C0 4.01 0 3.02 0 2 C0 1.34 0 0.68 0 0 Z " fill="#E0E7DF" transform="translate(297,199)"/>
<path d="M0 0 C3.21279089 2.71851537 3.90640581 4.40723678 4.5625 8.5625 C4 12 4 12 1.9375 14.5 C-1.89378967 16.45640324 -3.8999226 16.13891039 -8 15 C-10.68650909 13.29854424 -10.95634757 12.15782031 -11.8125 9.0625 C-12.0096353 5.84262343 -11.84964427 4.58950198 -10 2 C-6.26744552 -0.48836965 -4.41559065 -0.54226552 0 0 Z " fill="#E2E9E6" transform="translate(263,225)"/>
<path d="M0 0 C0.556875 0.2475 1.11375 0.495 1.6875 0.75 C1.6875 1.41 1.6875 2.07 1.6875 2.75 C2.6775 2.75 3.6675 2.75 4.6875 2.75 C5.3475 3.41 6.0075 4.07 6.6875 4.75 C8.0075 4.75 9.3275 4.75 10.6875 4.75 C9.25842175 7.60815651 7.0459734 8.2996533 4.28125 9.75 C2.51205659 10.66759769 2.51205659 10.66759769 1.6875 12.75 C-0.3125 11.75 -0.3125 11.75 -1.3125 9.75 C-2.2096875 10.0903125 -2.2096875 10.0903125 -3.125 10.4375 C-3.846875 10.540625 -4.56875 10.64375 -5.3125 10.75 C-7.0625 9.3125 -7.0625 9.3125 -8.3125 7.75 C-8.374375 8.53375 -8.43625 9.3175 -8.5 10.125 C-9.3125 12.75 -9.3125 12.75 -11.75 14.125 C-14.3125 14.75 -14.3125 14.75 -16.3125 13.75 C-16.3125 13.09 -16.3125 12.43 -16.3125 11.75 C-15.6525 11.75 -14.9925 11.75 -14.3125 11.75 C-14.3125 11.09 -14.3125 10.43 -14.3125 9.75 C-12.6625 9.09 -11.0125 8.43 -9.3125 7.75 C-9.3125 7.09 -9.3125 6.43 -9.3125 5.75 C-8.6525 5.75 -7.9925 5.75 -7.3125 5.75 C-7.3125 5.09 -7.3125 4.43 -7.3125 3.75 C-3.10958131 -0.33617095 -3.10958131 -0.33617095 0 0 Z " fill="#E5F2ED" transform="translate(249.3125,268.25)"/>
<path d="M0 0 C0.68707555 2.49064888 1 4.37886292 1 7 C0.01 7.66 -0.98 8.32 -2 9 C-5.674181 15.63688764 -7.27340316 22.19316721 -7.64453125 29.7109375 C-7.68057968 30.43715805 -7.71662811 31.1633786 -7.75376892 31.91160583 C-8.15717789 40.95800241 -8.10853358 50.00951892 -8.0625 59.0625 C-8.05746611 60.8157539 -8.0529066 62.56900924 -8.04882812 64.32226562 C-8.03799243 68.54821347 -8.02083624 72.77409012 -8 77 C-10.5465685 74.4534315 -10.2702036 73.49771105 -10.32226562 69.9621582 C-10.34148071 68.90958328 -10.3606958 67.85700836 -10.38049316 66.77253723 C-10.38899292 65.62685776 -10.39749268 64.48117828 -10.40625 63.30078125 C-10.41765015 62.11840378 -10.42905029 60.93602631 -10.4407959 59.71781921 C-10.45973126 57.20343618 -10.47277785 54.68900312 -10.48046875 52.17456055 C-10.499696 48.37261308 -10.56162219 44.57291507 -10.625 40.77148438 C-10.73638269 27.67657116 -10.57527814 16.60715106 -4 5 C-3.34 5 -2.68 5 -2 5 C-1.855625 4.360625 -1.71125 3.72125 -1.5625 3.0625 C-1 1 -1 1 0 0 Z " fill="#B1C7C8" transform="translate(196,185)"/>
<path d="M0 0 C1.12535145 3.37605435 0.82341175 4.38146184 0.0546875 7.76953125 C-1.53615678 16.68281981 -1.15881773 25.61610026 -0.94335938 34.63696289 C-0.8749223 37.69096754 -0.83897808 40.74427188 -0.8046875 43.79882812 C-0.76499223 45.76566578 -0.72339105 47.73246608 -0.6796875 49.69921875 C-0.67218475 50.5994426 -0.66468201 51.49966644 -0.6569519 52.4271698 C-0.46513228 58.74094326 1.08077876 63.4282454 4 69 C4.66753535 70.33289864 5.33445903 71.66610441 6 73 C-0.48826736 69.51556012 -0.48826736 69.51556012 -1.78092957 65.68717957 C-2.86438788 58.91758888 -3.30709021 52.34088742 -3.30078125 45.48828125 C-3.30506638 44.43521286 -3.3093515 43.38214447 -3.31376648 42.29716492 C-3.31946698 40.0896374 -3.32004197 37.88209111 -3.31567383 35.67456055 C-3.31249831 32.31071006 -3.33608105 28.94772755 -3.36132812 25.58398438 C-3.36360012 23.42708443 -3.36430508 21.27018215 -3.36328125 19.11328125 C-3.372491 18.11726395 -3.38170074 17.12124664 -3.39118958 16.095047 C-3.35122975 10.03313892 -2.47824243 5.54502137 0 0 Z " fill="#C6D2D0" transform="translate(200,199)"/>
<path d="M0 0 C0 0.66 0 1.32 0 2 C-0.66 2 -1.32 2 -2 2 C-2.66 3.32 -3.32 4.64 -4 6 C-4.95503418 5.83628906 -5.91006836 5.67257812 -6.89404297 5.50390625 C-11.49970993 4.84939623 -16.05183583 4.89304985 -20.6953125 4.9375 C-21.60578339 4.94128662 -22.51625427 4.94507324 -23.45431519 4.94897461 C-26.3445932 4.96112163 -29.23476809 4.9797515 -32.125 5 C-35.94010156 5.02663026 -39.75515282 5.04659945 -43.5703125 5.0625 C-44.44124542 5.07079834 -45.31217834 5.07909668 -46.20950317 5.08764648 C-50.27836224 5.10407923 -54.03038028 5.03070116 -58 4 C-58 3.67 -58 3.34 -58 3 C-57.37217117 2.99191315 -56.74434235 2.98382629 -56.0974884 2.97549438 C-49.55982289 2.889401 -43.02245892 2.789895 -36.48510742 2.68261719 C-34.04570583 2.64434698 -31.60624818 2.6094907 -29.16674805 2.578125 C-25.65913873 2.53243255 -22.15191466 2.47444395 -18.64453125 2.4140625 C-17.55477493 2.40251129 -16.46501862 2.39096008 -15.34223938 2.37905884 C-14.32155869 2.35918915 -13.30087799 2.33931946 -12.24926758 2.31884766 C-11.35436111 2.30552399 -10.45945465 2.29220032 -9.53742981 2.2784729 C-6.14632588 1.90631264 -3.36035575 0 0 0 Z " fill="#C5D3CE" transform="translate(309,278)"/>
<path d="M0 0 C3.375 0.4375 3.375 0.4375 5.375 1.4375 C5.375 2.0975 5.375 2.7575 5.375 3.4375 C6.035 3.4375 6.695 3.4375 7.375 3.4375 C7.705 6.4075 8.035 9.3775 8.375 12.4375 C3.625 13.5625 3.625 13.5625 1.375 12.4375 C1.375 10.7875 1.375 9.1375 1.375 7.4375 C-1.595 7.1075 -4.565 6.7775 -7.625 6.4375 C-4.55869107 0.55018685 -4.55869107 0.55018685 0 0 Z " fill="#EBF0EF" transform="translate(332.625,158.5625)"/>
<path d="M0 0 C1.08396057 0.01419228 1.08396057 0.01419228 2.18981934 0.02867126 C4.5599209 0.06214052 6.92947636 0.11031095 9.29931641 0.15869141 C10.94982509 0.18488011 12.60034865 0.21014537 14.25088501 0.23452759 C18.58126768 0.30096725 22.91133473 0.37990513 27.24145508 0.46148682 C31.66556749 0.54261382 36.08986424 0.61186491 40.51416016 0.68212891 C49.18495684 0.82157731 57.85545607 0.97423573 66.52587891 1.13525391 C66.52587891 1.46525391 66.52587891 1.79525391 66.52587891 2.13525391 C65.66889908 2.14112015 64.81191925 2.14698639 63.92897034 2.1530304 C55.82299805 2.21111499 47.71729669 2.28328125 39.61158848 2.37096882 C35.44509913 2.41555319 31.27870488 2.45483499 27.11206055 2.48168945 C23.08534597 2.50784232 19.05899971 2.54832769 15.03251457 2.59844017 C13.50211126 2.61502835 11.97164436 2.62659247 10.44116402 2.63286781 C2.25766721 2.6697937 -4.80063315 3.070446 -12.47412109 6.13525391 C-13.46412109 6.13525391 -14.45412109 6.13525391 -15.47412109 6.13525391 C-14.84912109 4.26025391 -14.84912109 4.26025391 -13.47412109 2.13525391 C-8.88120035 0.16332682 -4.9625848 -0.08468575 0 0 Z " fill="#BDCBCE" transform="translate(229.47412109375,178.86474609375)"/>
<path d="M0 0 C0.99 0.33 1.98 0.66 3 1 C4.12755882 7.33626196 4.16143952 13.56342855 4.16796875 19.98828125 C4.17129715 21.12782761 4.17462555 22.26737396 4.17805481 23.44145203 C4.1831004 25.83930051 4.18546387 28.23715597 4.18530273 30.63500977 C4.18750289 34.31733527 4.20572089 37.99936752 4.22460938 41.68164062 C4.22754097 44.01301981 4.22952733 46.34440041 4.23046875 48.67578125 C4.24124702 50.33351311 4.24124702 50.33351311 4.25224304 52.0247345 C4.24916641 53.0430687 4.24608978 54.06140289 4.24291992 55.1105957 C4.24434494 56.00881546 4.24576996 56.90703522 4.24723816 57.83247375 C4 60 4 60 2 62 C2.00444122 61.35599747 2.00888245 60.71199493 2.01345825 60.04847717 C2.05787495 53.31578806 2.08794234 46.58314093 2.10986328 39.8503418 C2.11989011 37.34121 2.13351495 34.8320898 2.15087891 32.32299805 C2.17527318 28.70618824 2.18651661 25.08953362 2.1953125 21.47265625 C2.20563507 20.35979752 2.21595764 19.24693878 2.22659302 18.10035706 C2.22749878 11.74208417 1.63298743 6.1505426 0 0 Z " fill="#AAC0BE" transform="translate(319,198)"/>
<path d="M0 0 C0.33 0 0.66 0 1 0 C1.02529951 6.22964615 1.04284549 12.45927912 1.05493164 18.68896484 C1.05996872 20.80941259 1.06679859 22.92985685 1.07543945 25.05029297 C1.08753234 28.09343322 1.09323447 31.13652766 1.09765625 34.1796875 C1.10281754 35.13181122 1.10797882 36.08393494 1.11329651 37.06491089 C1.11337204 37.94567291 1.11344757 38.82643494 1.11352539 39.73388672 C1.115746 40.51110077 1.11796661 41.28831482 1.12025452 42.08908081 C1 44 1 44 0 46 C-0.66 46 -1.32 46 -2 46 C-2.33 44.68 -2.66 43.36 -3 42 C-2.34 42 -1.68 42 -1 42 C-0.67 28.14 -0.34 14.28 0 0 Z " fill="#F0FDF7" transform="translate(323,218)"/>
<path d="M0 0 C1.32 0.66 2.64 1.32 4 2 C4.05384521 4.29141286 4.09272087 6.58318188 4.125 8.875 C4.14820313 10.15117187 4.17140625 11.42734375 4.1953125 12.7421875 C4 16 4 16 2 18 C0.01178687 18.39764263 -1.98944339 18.73775349 -4 19 C-4.66 17.35 -5.32 15.7 -6 14 C-5.34 14 -4.68 14 -4 14 C-4 14.66 -4 15.32 -4 16 C-3.01 16 -2.02 16 -1 16 C1.73251586 9.71414501 1.73251586 9.71414501 2 3 C1.34 2.01 0.68 1.02 0 0 Z " fill="#A5BCBD" transform="translate(214,260)"/>
<path d="M0 0 C0.33 0.99 0.66 1.98 1 3 C1.99 3 2.98 3 4 3 C4 2.01 4 1.02 4 0 C4.66 0 5.32 0 6 0 C5.67 1.65 5.34 3.3 5 5 C7.97 5.495 7.97 5.495 11 6 C9.5 8 9.5 8 7 10 C4.24128373 10.35800135 1.79902476 10.18660165 -1 10 C0.32 9.34 1.64 8.68 3 8 C2.67 7.01 2.34 6.02 2 5 C1.34 4.67 0.68 4.34 0 4 C0 2.68 0 1.36 0 0 Z " fill="#CAD9D5" transform="translate(329,166)"/>
<path d="M0 0 C0.33 0 0.66 0 1 0 C1.05425013 2.87525669 1.09379277 5.74947646 1.125 8.625 C1.14175781 9.43324219 1.15851563 10.24148438 1.17578125 11.07421875 C1.21420986 15.80093815 0.82737094 19.55387702 -1 24 C-0.34 24 0.32 24 1 24 C1 24.66 1 25.32 1 26 C0.01 25.67 -0.98 25.34 -2 25 C-2.24911914 16.41922945 -1.69882188 8.41826913 0 0 Z " fill="#F0FDFB" transform="translate(210,287)"/>
<path d="M0 0 C0.9375 2.25 0.9375 2.25 1 4 C-10 -0.33333333 -10 -0.33333333 -14 -3 C-7.70702039 -4.54113786 -5.04071093 -3.73012609 0 0 Z " fill="#BBD3D7" transform="translate(310,184)"/>
<path d="M0 0 C2.375 0.9375 2.375 0.9375 5 3 C6.04022801 5.9481839 6.56587736 8.90930595 7 12 C6.01 12 5.02 12 4 12 C3.32332002 10.75539217 2.65905281 9.50403104 2 8.25 C1.62875 7.55390625 1.2575 6.8578125 0.875 6.140625 C0 4 0 4 0 0 Z " fill="#BDCDCF" transform="translate(188,262)"/>
<path d="M0 0 C0.66 0.33 1.32 0.66 2 1 C1.3125 3.875 1.3125 3.875 0 7 C-2.5 8.4375 -2.5 8.4375 -5 9 C-5.66 8.67 -6.32 8.34 -7 8 C-7 7.34 -7 6.68 -7 6 C-6.34 6 -5.68 6 -5 6 C-5 5.34 -5 4.68 -5 4 C-3.35 3.34 -1.7 2.68 0 2 C0 1.34 0 0.68 0 0 Z " fill="#BDDCDD" transform="translate(240,274)"/>
<path d="M0 0 C1.65 0 3.3 0 5 0 C5.33 1.65 5.66 3.3 6 5 C5.01 5.66 4.02 6.32 3 7 C1.68 5.68 0.36 4.36 -1 3 C-0.67 2.01 -0.34 1.02 0 0 Z " fill="#FCFAEE" transform="translate(278,229)"/>
<path d="M0 0 C0.66 0.33 1.32 0.66 2 1 C1.38125 1.2475 0.7625 1.495 0.125 1.75 C-2.42503925 3.25002309 -2.76222348 4.3697249 -4 7 C-6 9.25 -6 9.25 -8 11 C-8.66 11 -9.32 11 -10 11 C-10.66 12.32 -11.32 13.64 -12 15 C-12 10.09687565 -8.29800369 7.38658643 -5 4 C-3.37458956 2.61667196 -1.72614587 1.25537882 0 0 Z " fill="#D8E1DC" transform="translate(223,197)"/>
<path d="M0 0 C0 0.33 0 0.66 0 1 C-1.12019531 1.06058594 -2.24039063 1.12117187 -3.39453125 1.18359375 C-4.86719984 1.26801424 -6.33985544 1.35266149 -7.8125 1.4375 C-8.55048828 1.47681641 -9.28847656 1.51613281 -10.04882812 1.55664062 C-13.23071342 1.74381035 -15.96162378 1.98720793 -19 3 C-21.6875 2.5625 -21.6875 2.5625 -24 2 C-24 1.67 -24 1.34 -24 1 C-15.74763174 -1.00107527 -8.41248481 -0.98970409 0 0 Z " fill="#D6E6E0" transform="translate(240,170)"/>
<path d="M0 0 C0.66 0.33 1.32 0.66 2 1 C2 4.63 2 8.26 2 12 C1.34 12 0.68 12 0 12 C-2.31332486 8.53001271 -2.33957563 7.07490752 -2 3 C-1.34 2.01 -0.68 1.02 0 0 Z " fill="#C5D7D7" transform="translate(276,227)"/>
<path d="M0 0 C0 3 0 3 -2 6 C-2.2165625 7.7634375 -2.2165625 7.7634375 -2.4375 9.5625 C-2.623125 10.696875 -2.80875 11.83125 -3 13 C-3.99 13.66 -4.98 14.32 -6 15 C-5.40881961 10.17202681 -4.6515356 5.5875989 -3 1 C-2.01 0.67 -1.02 0.34 0 0 Z " fill="#C5D6CE" transform="translate(225,280)"/>
<path d="M0 0 C0.99 0.66 1.98 1.32 3 2 C4.32 2 5.64 2 7 2 C5.57092175 4.85815651 3.3584734 5.5496533 0.59375 7 C-1.17544341 7.91759769 -1.17544341 7.91759769 -2 10 C-2.66 9.67 -3.32 9.34 -4 9 C-3.67 8.01 -3.34 7.02 -3 6 C-2.01 6 -1.02 6 0 6 C0 4.02 0 2.04 0 0 Z " fill="#C6D6D5" transform="translate(253,271)"/>
<path d="M0 0 C1.65 0 3.3 0 5 0 C5.12375 0.639375 5.2475 1.27875 5.375 1.9375 C5.684375 2.9584375 5.684375 2.9584375 6 4 C6.66 4.33 7.32 4.66 8 5 C8 6.65 8 8.3 8 10 C4.74475735 6.97727468 2.38179263 3.74281699 0 0 Z " fill="#BFDCDB" transform="translate(311,188)"/>
<path d="M0 0 C2.33944736 0.28730055 4.6739143 0.61936779 7 1 C6.67 1.99 6.34 2.98 6 4 C6.66 4.33 7.32 4.66 8 5 C5.1875 5.25 5.1875 5.25 2 5 C0.125 3 0.125 3 -1 1 C-0.67 0.67 -0.34 0.34 0 0 Z " fill="#F7FAF7" transform="translate(326,170)"/>
<path d="M0 0 C2.875 0.4375 2.875 0.4375 4.875 2.4375 C3.225 2.7675 1.575 3.0975 -0.125 3.4375 C-0.125 4.0975 -0.125 4.7575 -0.125 5.4375 C-2.435 5.4375 -4.745 5.4375 -7.125 5.4375 C-3.95008251 0.55301155 -3.95008251 0.55301155 0 0 Z " fill="#F7FBF7" transform="translate(332.125,159.5625)"/>
<path d="M0 0 C0.33 0.99 0.66 1.98 1 3 C1.99 3 2.98 3 4 3 C5.125 9.75 5.125 9.75 4 12 C3.32332002 10.75539217 2.65905281 9.50403104 2 8.25 C1.62875 7.55390625 1.2575 6.8578125 0.875 6.140625 C0 4 0 4 0 0 Z " fill="#A7BBCC" transform="translate(207,246)"/>
<path d="M0 0 C1.62818946 0.22830701 3.2526349 0.48343576 4.875 0.75 C6.23238281 0.95882812 6.23238281 0.95882812 7.6171875 1.171875 C10 2 10 2 11.3203125 4.078125 C11.54460937 4.71234375 11.76890625 5.3465625 12 6 C8 4.66666667 4 3.33333333 0 2 C0 1.34 0 0.68 0 0 Z " fill="#F6FDFC" transform="translate(282,201)"/>
<path d="M0 0 C0.66 0.33 1.32 0.66 2 1 C1.01 1.33 0.02 1.66 -1 2 C-1 2.66 -1 3.32 -1 4 C-2.65 4.66 -4.3 5.32 -6 6 C-6 5.01 -6 4.02 -6 3 C-4.03533587 1.93224776 -2.03144641 0.93446535 0 0 Z " fill="#D3E3D6" transform="translate(214,172)"/>
<path d="M0 0 C2.375 0.1875 2.375 0.1875 5 1 C6.3125 3.5625 6.3125 3.5625 7 6 C4.50638429 4.79618552 2.31856917 3.54571278 0 2 C0 1.34 0 0.68 0 0 Z " fill="#9DA9A9" transform="translate(196,278)"/>
<path d="M0 0 C3 1 3 1 4.1875 3.0625 C4.455625 3.701875 4.72375 4.34125 5 5 C2 5 2 5 -1 3 C-0.67 2.01 -0.34 1.02 0 0 Z " fill="#F9FDF9" transform="translate(215,257)"/>
<path d="M0 0 C0 0.66 0 1.32 0 2 C-0.66 2 -1.32 2 -2 2 C-2.66 3.32 -3.32 4.64 -4 6 C-4.99 5.34 -5.98 4.68 -7 4 C-6.01 3.67 -5.02 3.34 -4 3 C-4 2.34 -4 1.68 -4 1 C-2 0 -2 0 0 0 Z " fill="#E5EDE3" transform="translate(309,278)"/>
<path d="M0 0 C3.0625 0.1875 3.0625 0.1875 5.0625 2.1875 C2.25 2.8125 2.25 2.8125 -0.9375 3.1875 C-1.9275 2.5275 -2.9175 1.8675 -3.9375 1.1875 C-2.9375 0.1875 -2.9375 0.1875 0 0 Z " fill="#C7D6D8" transform="translate(281.9375,224.8125)"/>
</svg>
